<?xml version="1.0" encoding="utf-8"?>
<!-- Generator: Adobe Illustrator 21.1.0, SVG Export Plug-In . SVG Version: 6.00 Build 0)  -->
<svg version="1.1" id="Layer_1" xmlns="http://www.w3.org/2000/svg" xmlns:xlink="http://www.w3.org/1999/xlink" x="0px" y="0px"
	 viewBox="0 0 18 18" style="enable-background:new 0 0 18 18;" xml:space="preserve">
<style type="text/css">
	.st0{fill:#FFFFFF;}
</style>
<path id="Path" class="st0" d="M16.2,0h-6.1C9.4,0,8.9,0.5,8.9,1.1s0.5,1.1,1.1,1.1h5.5c0.1,0,0.2,0.1,0.2,0.2v9.9
	c0,0.1-0.1,0.2-0.2,0.2H5.3c-0.1,0-0.2-0.1-0.2-0.2v-2.3c0-0.3-0.2-0.6-0.5-0.7C4.3,9.3,4,9.3,3.8,9.6l-3.6,3.6
	c-0.3,0.3-0.3,0.8,0,1.1l3.6,3.6C3.9,17.9,4.1,18,4.3,18c0.1,0,0.2,0,0.3-0.1c0.3-0.1,0.5-0.4,0.5-0.7V15c0-0.1,0.1-0.2,0.2-0.2
	h10.9c1,0,1.8-0.8,1.8-1.8V1.8C18,0.8,17.2,0,16.2,0z"/>
</svg>
