<?xml version="1.0" encoding="utf-8"?>
<!-- Generator: Adobe Illustrator 21.1.0, SVG Export Plug-In . SVG Version: 6.00 Build 0)  -->
<svg version="1.1" id="Layer_1" xmlns="http://www.w3.org/2000/svg" xmlns:xlink="http://www.w3.org/1999/xlink" x="0px" y="0px"
	 viewBox="0 0 23 23" style="enable-background:new 0 0 23 23;" xml:space="preserve">
<path d="M10.8,9.2H1.5c-0.5,0-0.9,0.4-0.9,0.9v11.5c0,0.5,0.4,0.9,0.9,0.9h2.8c0.3,0,0.5-0.2,0.5-0.5v-2.3c0-0.5,0.4-0.9,0.9-0.9
	h0.9c0.5,0,0.9,0.4,0.9,0.9V22c0,0.3,0.2,0.5,0.5,0.5h2.8c0.5,0,0.9-0.4,0.9-0.9V10.1C11.8,9.6,11.3,9.2,10.8,9.2z M9.2,16.3H3.1
	c-0.4,0-0.7-0.3-0.7-0.7s0.3-0.7,0.7-0.7h6.1c0.4,0,0.7,0.3,0.7,0.7S9.6,16.3,9.2,16.3z M9.2,13.1H3.1c-0.4,0-0.7-0.3-0.7-0.7
	c0-0.4,0.3-0.7,0.7-0.7h6.1c0.4,0,0.7,0.3,0.7,0.7C9.9,12.8,9.6,13.1,9.2,13.1z M2.9,7.8h6.5c0.3,0,0.5-0.2,0.5-0.5V3.7
	c0-0.5-0.4-0.9-0.9-0.9H6.8c-0.3,0-0.5-0.2-0.5-0.5V1.4c0-0.5-0.4-0.9-0.9-0.9S4.5,0.9,4.5,1.4v0.9c0,0.3-0.2,0.5-0.5,0.5H3.3
	c-0.5,0-0.9,0.4-0.9,0.9v3.7C2.4,7.6,2.6,7.8,2.9,7.8z M5,4.9h2.3C7.7,4.9,8,5.2,8,5.5c0,0.4-0.3,0.7-0.7,0.7H5
	c-0.4,0-0.7-0.3-0.7-0.7C4.3,5.2,4.6,4.9,5,4.9z M22,6h-7.5c-0.5,0-0.9,0.4-0.9,0.9V22c0,0.3,0.2,0.5,0.5,0.5h2.3
	c0.3,0,0.5-0.2,0.5-0.5v-2.3c0-0.5,0.4-0.9,0.9-0.9h0.9c0.5,0,0.9,0.4,0.9,0.9V22c0,0.3,0.2,0.5,0.5,0.5h2.3c0.3,0,0.5-0.2,0.5-0.5
	V6.9C23,6.4,22.6,6,22,6z M20.4,16.8h-4.2c-0.4,0-0.7-0.3-0.7-0.7c0-0.4,0.3-0.7,0.7-0.7h4.2c0.4,0,0.7,0.3,0.7,0.7
	C21.1,16.5,20.8,16.8,20.4,16.8z M20.4,13.1h-4.2c-0.4,0-0.7-0.3-0.7-0.7c0-0.4,0.3-0.7,0.7-0.7h4.2c0.4,0,0.7,0.3,0.7,0.7
	C21.1,12.8,20.8,13.1,20.4,13.1z M20.4,9.4h-4.2c-0.4,0-0.7-0.3-0.7-0.7s0.3-0.7,0.7-0.7h4.2c0.4,0,0.7,0.3,0.7,0.7
	S20.8,9.4,20.4,9.4z"/>
</svg>
