<?xml version="1.0" encoding="utf-8"?>
<!-- Generator: Adobe Illustrator 21.1.0, SVG Export Plug-In . SVG Version: 6.00 Build 0)  -->
<svg version="1.1" id="Layer_1" xmlns="http://www.w3.org/2000/svg" xmlns:xlink="http://www.w3.org/1999/xlink" x="0px" y="0px"
	 viewBox="0 0 24 12" style="enable-background:new 0 0 24 12;" xml:space="preserve">
<style type="text/css">
	.st0{fill:#FFFFFF;}
</style>
<path id="arrow" class="st0" d="M23.7,5.3l-4.8-4.8c-0.3-0.3-0.7-0.4-1.1-0.2c-0.4,0.2-0.6,0.5-0.6,0.9v3c0,0.1-0.1,0.2-0.2,0.2H1.5
	C0.7,4.5,0,5.2,0,6s0.7,1.5,1.5,1.5H17c0.1,0,0.2,0.1,0.2,0.2v3c0,0.4,0.2,0.8,0.6,0.9c0.4,0.2,0.8,0.1,1.1-0.2l4.8-4.8
	C24.1,6.3,24.1,5.7,23.7,5.3z"/>
</svg>
