<?xml version="1.0" encoding="utf-8"?>
<!-- Generator: Adobe Illustrator 21.1.0, SVG Export Plug-In . SVG Version: 6.00 Build 0)  -->
<svg version="1.1" id="Layer_1" xmlns="http://www.w3.org/2000/svg" xmlns:xlink="http://www.w3.org/1999/xlink" x="0px" y="0px"
	 viewBox="0 0 19 19" style="enable-background:new 0 0 19 19;" xml:space="preserve">
<style type="text/css">
	.st0{fill:#4460A0;}
</style>
<path id="Facebook" class="st0" d="M9.8,18.6H1.2c-0.5,0-1-0.4-1-1V1.4c0-0.6,0.4-1,1-1h16c0.5,0,1,0.4,1,1v16.2c0,0.6-0.4,1-1,1
	h-4.6v-7H15l0.3-2.7h-2.7V7.1c0-0.8,0.2-1.3,1.3-1.3l1.4,0V3.3c-0.2,0-1.1-0.1-2.1-0.1c-2.1,0-3.5,1.3-3.5,3.6v2H7.5v2.7h2.3V18.6z"
	/>
</svg>
