<?xml version="1.0" encoding="utf-8"?>
<!-- Generator: Adobe Illustrator 21.1.0, SVG Export Plug-In . SVG Version: 6.00 Build 0)  -->
<svg version="1.1" id="Layer_1" xmlns="http://www.w3.org/2000/svg" xmlns:xlink="http://www.w3.org/1999/xlink" x="0px" y="0px"
	 viewBox="0 0 18 18" style="enable-background:new 0 0 18 18;" xml:space="preserve">
<style type="text/css">
	.st0{fill:#15CCB2;}
</style>
<path id="Path" class="st0" d="M14.4,10.8c-1,0-1.9,0.4-2.6,1.1l-4-2c0-0.2,0.1-0.4,0.1-0.6c0-0.2,0-0.4-0.1-0.6l4-2
	c1.2,1.2,3.1,1.4,4.5,0.5s2-2.8,1.4-4.4s-2.3-2.5-4-2.2s-2.9,1.8-2.9,3.5c0,0.2,0,0.4,0.1,0.6l-4,2C5.9,5.8,4.3,5.5,3,6
	S0.7,7.9,0.7,9.4s0.9,2.8,2.3,3.3s2.9,0.2,3.9-0.8l4,2c0,0.2-0.1,0.4-0.1,0.6c0,2,1.6,3.6,3.6,3.6s3.6-1.6,3.6-3.6
	S16.4,10.8,14.4,10.8z"/>
</svg>
