<?xml version="1.0" encoding="utf-8"?>
<!-- Generator: Adobe Illustrator 21.1.0, SVG Export Plug-In . SVG Version: 6.00 Build 0)  -->
<svg version="1.1" id="touch_x5F_finger" xmlns="http://www.w3.org/2000/svg" xmlns:xlink="http://www.w3.org/1999/xlink" x="0px"
	 y="0px" viewBox="0 0 16 24" style="enable-background:new 0 0 16 24;" xml:space="preserve">
<style type="text/css">
	.st0{fill:#15CCB2;}
</style>
<path id="Path" class="st0" d="M15.1,14.8L10,13V7.5c0-1.1-0.9-2-2-2s-2,0.9-2,2V16l-0.8-1.1c-0.3-0.4-0.7-0.6-1.2-0.6l-1,0
	c-0.5,0-1,0.3-1.3,0.7c-0.3,0.4-0.3,1,0,1.5l3.7,6.8C5.7,23.7,6.2,24,6.7,24h6.4c0.6,0,1.2-0.4,1.4-1l1.5-6.7c0,0,0-0.1,0-0.1
	C16,15.6,15.7,15,15.1,14.8z"/>
<path id="Path_1_" class="st0" d="M2.1,11.9c0.2-0.1,0.4-0.3,0.5-0.6s0.1-0.5,0-0.8C2.2,9.8,2,8.9,2,8c0-3.3,2.7-6,6-6s6,2.7,6,6
	c0,0.9-0.2,1.8-0.6,2.6c-0.2,0.5,0,1.1,0.5,1.3c0.5,0.2,1.1,0,1.3-0.5C15.7,10.4,16,9.2,16,8c0-4.4-3.6-8-8-8S0,3.6,0,8
	c0,1.2,0.3,2.4,0.8,3.4C1,11.9,1.6,12.1,2.1,11.9z"/>
</svg>
