<?xml version="1.0" encoding="utf-8"?>
<!-- Generator: Adobe Illustrator 21.1.0, SVG Export Plug-In . SVG Version: 6.00 Build 0)  -->
<svg version="1.1" id="Layer_1" xmlns="http://www.w3.org/2000/svg" xmlns:xlink="http://www.w3.org/1999/xlink" x="0px" y="0px"
	 viewBox="0 0 18 18" style="enable-background:new 0 0 18 18;" xml:space="preserve">
<style type="text/css">
	.st0{fill:#15CCB2;}
</style>
<path class="st0" d="M4.3,4.5c0.4,0,0.8-0.3,0.8-0.8V1.5h6.6l1.6,1.6v0.6c0,0.4,0.3,0.8,0.8,0.8s0.8-0.3,0.8-0.8V2.8
	c0-0.2-0.1-0.4-0.2-0.5l-1.8-1.8C12.5,0.2,12.1,0,11.7,0H5.1C4.2,0,3.6,0.7,3.6,1.5v2.2C3.6,4.2,3.9,4.5,4.3,4.5z M16.1,5.2H1.9
	C0.8,5.2,0,6.1,0,7.1v3.4c0,1,0.8,1.9,1.9,1.9h1.9v4.7c0,0.5,0.4,0.9,0.9,0.9h9c0.5,0,0.9-0.4,0.9-0.9v-4.7h1.5c0.5,0,1-0.2,1.3-0.5
	c0.4-0.4,0.5-0.8,0.5-1.3V7.1c0-0.5-0.2-1-0.5-1.3S16.6,5.2,16.1,5.2z M2.6,8.6c-0.4,0-0.8-0.3-0.8-0.8c0-0.4,0.3-0.8,0.8-0.8
	s0.8,0.3,0.8,0.8C3.4,8.3,3,8.6,2.6,8.6z M13.1,16.1c0,0.2-0.2,0.4-0.4,0.4H5.6c-0.2,0-0.4-0.2-0.4-0.4V9.3C5.2,9.1,5.4,9,5.6,9h7.1
	c0.2,0,0.4,0.2,0.4,0.4V16.1z M11.2,11.1H7.1c-0.3,0-0.6,0.3-0.6,0.6c0,0.3,0.3,0.6,0.6,0.6h4.1c0.3,0,0.6-0.3,0.6-0.6
	C11.8,11.3,11.6,11.1,11.2,11.1z M9.9,13.7H7.1c-0.3,0-0.6,0.3-0.6,0.6c0,0.3,0.3,0.6,0.6,0.6h2.8c0.3,0,0.6-0.3,0.6-0.6
	C10.5,13.9,10.2,13.7,9.9,13.7z"/>
</svg>
