<?xml version="1.0" encoding="utf-8"?>
<!-- Generator: Adobe Illustrator 21.1.0, SVG Export Plug-In . SVG Version: 6.00 Build 0)  -->
<svg version="1.1" id="Layer_1" xmlns="http://www.w3.org/2000/svg" xmlns:xlink="http://www.w3.org/1999/xlink" x="0px" y="0px"
	 viewBox="0 0 23 20.8" style="enable-background:new 0 0 23 20.8;" xml:space="preserve">
<style type="text/css">
	.st0{fill:#E21154;}
</style>
<path id="Shape" class="st0" d="M22.7,17.1l-9-15.8C13.2,0.5,12.4,0,11.5,0c-0.9,0-1.7,0.5-2.2,1.2l-9,15.8c-0.4,0.8-0.4,1.7,0,2.5
	c0.4,0.8,1.3,1.2,2.1,1.2h18.1c0.9,0,1.7-0.5,2.1-1.2C23.1,18.8,23.1,17.8,22.7,17.1z M12.7,17.8c-0.3,0.3-0.7,0.4-1.1,0.4
	c-0.4,0-0.8-0.1-1.1-0.4c-0.3-0.3-0.5-0.6-0.5-1.1c0-0.4,0.1-0.8,0.4-1.1c0.3-0.3,0.7-0.4,1.1-0.4c0.4,0,0.8,0.1,1.1,0.4
	c0.3,0.3,0.5,0.7,0.5,1.1C13.2,17.2,13.1,17.6,12.7,17.8z M13.1,7.7l-0.4,4.5c0,0.6-0.1,1-0.3,1.3c-0.2,0.3-0.5,0.5-0.8,0.5
	c-0.4,0-0.7-0.2-0.8-0.5c-0.1-0.3-0.2-0.7-0.3-1.3l-0.3-4.4c-0.1-0.9-0.1-1.5-0.1-1.8c0-0.5,0.1-1,0.4-1.3c0.3-0.3,0.7-0.5,1.2-0.5
	c0.6,0,1,0.2,1.2,0.6c0.2,0.4,0.3,0.9,0.3,1.6C13.2,6.8,13.2,7.2,13.1,7.7z"/>
</svg>
