<?xml version="1.0" encoding="utf-8"?>
<!-- Generator: Adobe Illustrator 21.1.0, SVG Export Plug-In . SVG Version: 6.00 Build 0)  -->
<svg version="1.1" id="Layer_1" xmlns="http://www.w3.org/2000/svg" xmlns:xlink="http://www.w3.org/1999/xlink" x="0px" y="0px"
	 viewBox="0 0 23 20" style="enable-background:new 0 0 23 20;" xml:space="preserve">
<path id="briefcase" d="M9.6,14.6v-1.1H2l0,4.2c0,1.2,1,2.1,2.2,2.1h15.2c1.2,0,2.2-0.9,2.2-2.1v-4.2h-7.6v1.1H9.6z M20.4,5h-4.3
	V2.9l-2.2-2.1H9.6L7.4,2.9V5H3.1C1.9,5,0.9,6,0.9,7.2v3.2c0,1.2,1,2.1,2.2,2.1h6.5v-2.1h4.3v2.1h6.5c1.2,0,2.2-1,2.2-2.1V7.2
	C22.6,6,21.6,5,20.4,5z M13.9,5H9.6V2.9h4.3V5z"/>
</svg>
