<?xml version="1.0" encoding="utf-8"?>
<!-- Generator: Adobe Illustrator 21.1.0, SVG Export Plug-In . SVG Version: 6.00 Build 0)  -->
<svg version="1.1" id="Layer_1" xmlns="http://www.w3.org/2000/svg" xmlns:xlink="http://www.w3.org/1999/xlink" x="0px" y="0px"
	 viewBox="0 0 18 18" style="enable-background:new 0 0 18 18;" xml:space="preserve">
<path id="icn-linkedin" d="M16.7,0H1.3C0.6,0,0,0.6,0,1.3v15.4C0,17.4,0.6,18,1.3,18h15.4c0.7,0,1.3-0.6,1.3-1.3V1.3
	C18,0.6,17.4,0,16.7,0z M5.4,15.4H2.8V6.8h2.7L5.4,15.4L5.4,15.4z M4.1,5.7C3.3,5.7,2.6,5,2.6,4.1s0.7-1.5,1.5-1.5
	c0.9,0,1.5,0.7,1.5,1.5C5.7,5,5,5.7,4.1,5.7z M15.4,15.4h-2.7v-4.2c0-1,0-2.3-1.4-2.3c-1.4,0-1.6,1.1-1.6,2.2v4.3H7.1V6.8h2.6V8h0
	c0.4-0.7,1.2-1.4,2.5-1.4c2.7,0,3.2,1.8,3.2,4.1V15.4z"/>
</svg>
