<?xml version="1.0" encoding="utf-8"?>
<!-- Generator: Adobe Illustrator 21.1.0, SVG Export Plug-In . SVG Version: 6.00 Build 0)  -->
<svg version="1.1" id="Layer_1" xmlns="http://www.w3.org/2000/svg" xmlns:xlink="http://www.w3.org/1999/xlink" x="0px" y="0px"
	 viewBox="0 0 12 20" style="enable-background:new 0 0 12 20;" xml:space="preserve">
<path id="icn-facebook" d="M11,6c-0.1-0.1-0.2-0.1-0.3-0.1H7.5V4.7c0-0.2,0.1-0.5,0.4-0.5h2.5c0.1,0,0.2,0,0.3-0.1
	c0.1-0.1,0.1-0.2,0.1-0.3V0.4c0-0.2-0.2-0.4-0.4-0.4H6.8c-4,0-4.3,3.4-4.3,4.5v1.4H0.4C0.2,5.8,0,6,0,6.2v3.3C0,9.8,0.2,10,0.4,10
	h2.1v9.6c0,0.2,0.2,0.4,0.4,0.4h4.2c0.2,0,0.4-0.2,0.4-0.4V10h2.8c0.2,0,0.4-0.2,0.4-0.4l0.4-3.3C11.1,6.2,11,6.1,11,6z"/>
</svg>
