<?xml version="1.0" encoding="utf-8"?>
<!-- Generator: Adobe Illustrator 21.1.0, SVG Export Plug-In . SVG Version: 6.00 Build 0)  -->
<svg version="1.1" id="Layer_1" xmlns="http://www.w3.org/2000/svg" xmlns:xlink="http://www.w3.org/1999/xlink" x="0px" y="0px"
	 viewBox="0 0 21 19" style="enable-background:new 0 0 21 19;" xml:space="preserve">
<style type="text/css">
	.st0{fill:#007EBB;}
</style>
<path id="LinkedIn" class="st0" d="M20.1,18.6h-4.4v-6.4c0-1.7-0.7-2.8-2.2-2.8c-1.1,0-1.8,0.8-2.1,1.5c-0.1,0.3-0.1,0.6-0.1,1v6.7
	H7c0,0,0.1-11.4,0-12.4h4.3v1.9c0.3-0.9,1.6-2.1,3.8-2.1c2.7,0,4.9,1.8,4.9,5.6V18.6z M2.7,4.7L2.7,4.7c-1.4,0-2.3-0.9-2.3-2.2
	c0-1.2,0.9-2.2,2.4-2.2C4.1,0.4,5,1.3,5,2.5C5,3.7,4.1,4.7,2.7,4.7z M0.8,6.2h3.9v12.4H0.8V6.2z"/>
</svg>
