<?xml version="1.0" encoding="utf-8"?>
<!-- Generator: Adobe Illustrator 21.1.0, SVG Export Plug-In . SVG Version: 6.00 Build 0)  -->
<svg version="1.1" id="Layer_1" xmlns="http://www.w3.org/2000/svg" xmlns:xlink="http://www.w3.org/1999/xlink" x="0px" y="0px"
	 viewBox="0 0 49 46" style="enable-background:new 0 0 49 46;" xml:space="preserve">
<style type="text/css">
	.st0{fill:#15CCB2;}
</style>
<title>icn/check</title>
<desc>Created with Sketch.</desc>
<path id="Shape" class="st0" d="M42,23.5C42,33.2,34.2,41,24.5,41S7,33.2,7,23.5S14.8,6,24.5,6S42,13.8,42,23.5z M22.5,32.8l13-13
	c0.4-0.4,0.4-1.2,0-1.6l-1.6-1.6c-0.4-0.4-1.2-0.4-1.6,0L21.7,27.2l-4.9-4.9c-0.4-0.4-1.2-0.4-1.6,0l-1.6,1.6
	c-0.4,0.4-0.4,1.2,0,1.6l7.3,7.3C21.3,33.2,22,33.2,22.5,32.8z"/>
</svg>
