<?xml version="1.0" encoding="utf-8"?>
<!-- Generator: Adobe Illustrator 21.1.0, SVG Export Plug-In . SVG Version: 6.00 Build 0)  -->
<svg version="1.1" id="Layer_1" xmlns="http://www.w3.org/2000/svg" xmlns:xlink="http://www.w3.org/1999/xlink" x="0px" y="0px"
	 viewBox="0 0 49 46" style="enable-background:new 0 0 49 46;" xml:space="preserve">
<style type="text/css">
	.st0{fill:none;stroke:#000000;stroke-width:1.5;stroke-linecap:round;stroke-linejoin:round;}
</style>
<title>icn/social</title>
<desc>Created with Sketch.</desc>
<path id="Path" class="st0" d="M26.4,2.4c-7,0-13.4,3.8-16.8,9.9S6.3,25.8,10,31.8L4.4,43.6L16.2,38c6.9,4.3,15.9,3.8,22.2-1.3
	s8.8-13.7,6.1-21.4S34.5,2.4,26.4,2.4z"/>
<path id="Path_1_" class="st0" d="M31.9,25.8c0,3-2.5,5.5-5.5,5.5s-5.5-2.5-5.5-5.5H31.9z"/>
<path id="Path_2_" class="st0" d="M3,1"/>
<path id="Path_3_" class="st0" d="M18.1,18.2c-0.4,0-0.7,0.3-0.7,0.7s0.3,0.7,0.7,0.7s0.7-0.3,0.7-0.7S18.5,18.2,18.1,18.2"/>
<path id="Path_4_" class="st0" d="M3,1"/>
<path id="Path_5_" class="st0" d="M34.6,18.2c-0.4,0-0.7,0.3-0.7,0.7s0.3,0.7,0.7,0.7s0.7-0.3,0.7-0.7S35,18.2,34.6,18.2"/>
</svg>
