<?xml version="1.0" encoding="utf-8"?>
<!-- Generator: Adobe Illustrator 21.1.0, SVG Export Plug-In . SVG Version: 6.00 Build 0)  -->
<svg version="1.1" id="Layer_1" xmlns="http://www.w3.org/2000/svg" xmlns:xlink="http://www.w3.org/1999/xlink" x="0px" y="0px"
	 viewBox="0 0 49 46" style="enable-background:new 0 0 49 46;" xml:space="preserve">
<style type="text/css">
	.st0{fill:none;stroke:#000000;stroke-width:1.5;stroke-linecap:round;stroke-linejoin:round;}
</style>
<title>icn/general_public</title>
<desc>Created with Sketch.</desc>
<path id="Rectangle" class="st0" d="M5.9,5.9h38.2c0.8,0,1.5,0.7,1.5,1.5v27.2c0,0.8-0.7,1.5-1.5,1.5H5.9c-0.8,0-1.5-0.7-1.5-1.5
	V7.4C4.4,6.6,5,5.9,5.9,5.9z"/>
<path id="Path" class="st0" d="M31.9,5.9v30.2"/>
<path id="Path_1_" class="st0" d="M37.4,22.4h2.8"/>
<path id="Path_2_" class="st0" d="M37.4,27.9h2.8"/>
<path id="Path_3_" class="st0" d="M38.8,14.9c0.4,0,0.7,0.3,0.7,0.7c0,0.4-0.3,0.7-0.7,0.7s-0.7-0.3-0.7-0.7
	C38.1,15.2,38.4,14.9,38.8,14.9"/>
<path id="Path_4_" class="st0" d="M7.1,41.7l5.5-5.5"/>
<path id="Path_5_" class="st0" d="M42.9,41.7l-5.5-5.5"/>
</svg>
