<?xml version="1.0" encoding="utf-8"?>
<!-- Generator: Adobe Illustrator 21.1.0, SVG Export Plug-In . SVG Version: 6.00 Build 0)  -->
<svg version="1.1" id="Layer_1" xmlns="http://www.w3.org/2000/svg" xmlns:xlink="http://www.w3.org/1999/xlink" x="0px" y="0px"
	 viewBox="0 0 49 46" style="enable-background:new 0 0 49 46;" xml:space="preserve">
<style type="text/css">
	.st0{fill:none;stroke:#000000;stroke-width:1.5;stroke-linecap:round;stroke-linejoin:round;}
</style>
<title>icn/convince</title>
<desc>Created with Sketch.</desc>
<circle id="Oval" class="st0" cx="14" cy="7.9" r="5.5"/>
<path id="Path" class="st0" d="M22.7,21.6c-1.9-4.1-6.4-6.2-10.8-5.3s-7.5,4.9-7.5,9.4v4.1h4.1l1.4,13.8h8.2l1-9.6"/>
<path id="Path_1_" class="st0" d="M34.6,43.6l-9.4-9.8c-1.7-1.7-2.1-4.3-1-6.4c0.8-1.6,2.3-2.7,4.1-3c1.8-0.3,3.5,0.3,4.8,1.6
	l1.5,1.5l1.5-1.5c1.3-1.3,3.1-1.8,4.8-1.6c1.8,0.3,3.3,1.4,4.1,3c1.1,2.1,0.6,4.7-1,6.4L34.6,43.6z"/>
<circle id="Oval_1_" class="st0" cx="33.2" cy="7.2" r="4.8"/>
<path id="Path_2_" class="st0" d="M40.4,17.5c-1.3-2.3-3.7-3.8-6.3-4.1c-2.6-0.3-5.3,0.8-7,2.8"/>
</svg>
