<?xml version="1.0" encoding="utf-8"?>
<!-- Generator: Adobe Illustrator 21.1.0, SVG Export Plug-In . SVG Version: 6.00 Build 0)  -->
<svg version="1.1" id="Layer_1" xmlns="http://www.w3.org/2000/svg" xmlns:xlink="http://www.w3.org/1999/xlink" x="0px" y="0px"
	 viewBox="0 0 49 46" style="enable-background:new 0 0 49 46;" xml:space="preserve">
<style type="text/css">
	.st0{fill:none;stroke:#000000;stroke-width:1.5;stroke-linecap:round;stroke-linejoin:round;}
</style>
<title>icn/mobilize</title>
<desc>Created with Sketch.</desc>
<path id="Path" class="st0" d="M42.9,38.1h-5.5l-8.2,5.5v-5.5h-2.8c-1.5,0-2.8-1.2-2.8-2.8v-11c0-1.5,1.2-2.8,2.8-2.8h16.5
	c1.5,0,2.8,1.2,2.8,2.8v11C45.6,36.9,44.4,38.1,42.9,38.1z"/>
<path id="Path_1_" class="st0" d="M29.1,27.1h11"/>
<path id="Path_2_" class="st0" d="M29.1,32.6h11"/>
<circle id="Oval" class="st0" cx="14" cy="7.9" r="5.5"/>
<path id="Path_3_" class="st0" d="M19.7,18c-2.9-2.1-6.8-2.5-10-0.8s-5.3,5-5.3,8.6v4.1h4.1l1.4,13.8h8.2l0.5-4.8"/>
<circle id="Oval_1_" class="st0" cx="33" cy="7.2" r="4.8"/>
<path id="Path_4_" class="st0" d="M40.1,17.5c-1.3-2.3-3.7-3.8-6.3-4.1c-2.6-0.3-5.3,0.8-7,2.8"/>
</svg>
