<?xml version="1.0" encoding="utf-8"?>
<!-- Generator: Adobe Illustrator 21.1.0, SVG Export Plug-In . SVG Version: 6.00 Build 0)  -->
<svg version="1.1" id="Layer_1" xmlns="http://www.w3.org/2000/svg" xmlns:xlink="http://www.w3.org/1999/xlink" x="0px" y="0px"
	 viewBox="0 0 49 46" style="enable-background:new 0 0 49 46;" xml:space="preserve">
<style type="text/css">
	.st0{fill:none;stroke:#000000;stroke-width:1.5;stroke-linecap:round;stroke-linejoin:round;}
</style>
<title>icn/beer</title>
<desc>Created with Sketch.</desc>
<path id="Path" class="st0" d="M34.6,18.9h3.8c3.8-0.1,7,2.8,7.2,6.6v3.3c-0.2,3.8-3.4,6.7-7.2,6.6h-3.8"/>
<path id="Path_1_" class="st0" d="M34.6,16.1v24.9c0,0.7-0.2,1.3-0.7,1.8c-0.5,0.5-1.1,0.8-1.8,0.8H12.4c-1.4,0-2.5-1.2-2.5-2.6
	V18.3"/>
<path id="Path_2_" class="st0" d="M18.1,28.3V36"/>
<path id="Path_3_" class="st0" d="M26.4,24.5V36"/>
<path id="Path_4_" class="st0" d="M38.5,10.4c-0.6-1.9-2-3.5-3.9-4.2c-1.9-0.7-4-0.4-5.7,0.7c-1.2-2.9-4.1-4.6-7.2-4.5
	c-3.1,0.2-5.8,2.2-6.7,5.2c-2-1.9-4.9-2.3-7.4-1.1s-3.7,4-3.2,6.7s2.7,4.8,5.4,5.1h0c0,1.7,0.8,3.3,2,4.4c1.3,1.1,2.9,1.7,4.6,1.6
	c2.1-0.2,3.9-1.5,4.9-3.4c0.4-0.7,0.7-1.5,0.8-2.4c0.1-1.4,1.3-2.5,2.7-2.5c3.2,0,6.8,0,9.7,0c2.1,0,3.9-1.6,4.1-3.7
	C38.8,11.7,38.7,11,38.5,10.4z"/>
</svg>
