<?xml version="1.0" encoding="utf-8"?>
<!-- Generator: Adobe Illustrator 21.1.0, SVG Export Plug-In . SVG Version: 6.00 Build 0)  -->
<svg version="1.1" id="Layer_1" xmlns="http://www.w3.org/2000/svg" xmlns:xlink="http://www.w3.org/1999/xlink" x="0px" y="0px"
	 viewBox="0 0 49 46" style="enable-background:new 0 0 49 46;" xml:space="preserve">
<style type="text/css">
	.st0{fill:none;stroke:#000000;stroke-width:1.5;stroke-linecap:round;stroke-linejoin:round;}
</style>
<path id="Path" class="st0" d="M36,16.6l-1.2,0c-0.9,0-1.6-0.6-1.8-1.5L31.4,12c-1.9,1.2-4.2,1.8-6.4,1.8c-2.3,0-4.5-0.7-6.4-1.8
	l-1.6,3.1c-0.2,0.9-0.9,1.5-1.8,1.5l-1.1,0"/>
<path id="Path_1_" class="st0" d="M23.2,17.5c-0.4-0.6-1.1-1-1.8-0.9c-0.7-0.1-1.4,0.3-1.8,0.9"/>
<path id="Path_2_" class="st0" d="M30.5,17.5c-0.4-0.6-1.1-1-1.8-0.9c-0.7-0.1-1.4,0.3-1.8,0.9"/>
<path id="Path_3_" class="st0" d="M34,23.2c0.1-0.6,0.5-1.1,1-1.4c2-0.9,2.5-4.5,0.9-5.3c0.7-4.4-1-12.2-7.3-14.7
	c0,1.8-1.4,1.8-3.7,1.8c-11.9,0-11.9,7.4-11,12.8c-1.6,0.8-1.1,4.4,0.9,5.3c0.6,0.3,0.9,0.8,1,1.4"/>
<path id="Path_4_" class="st0" d="M25,34c11.3,0,9-10.8,9-10.8c-1,0.9-2.2,1.5-3.5,1.6c-1.8,0-1.8-2.8-5.5-2.8s-3.7,2.8-5.5,2.8
	c-1.3-0.1-2.6-0.7-3.5-1.6C16,23.2,13.7,34,25,34z"/>
<path id="Path_5_" class="st0" d="M22.2,27.6c0.7,0.6,1.6,0.9,2.5,0.9h0.5c0.9,0,1.8-0.3,2.5-0.9"/>
<path id="Path_6_" class="st0" d="M46.1,44.1c0-3.1-1.9-5.8-4.8-6.9l-5.6-1.9c-0.4-0.1-0.9,0-1.1,0.4c-1.9,3.5-5.6,5.7-9.6,5.7
	s-7.7-2.2-9.6-5.7c-0.2-0.4-0.7-0.6-1.1-0.4l-5.6,1.9c-2.9,1.1-4.8,3.8-4.8,6.9"/>
</svg>
