<?xml version="1.0" encoding="utf-8"?>
<!-- Generator: Adobe Illustrator 21.1.0, SVG Export Plug-In . SVG Version: 6.00 Build 0)  -->
<svg version="1.1" id="Layer_1" xmlns="http://www.w3.org/2000/svg" xmlns:xlink="http://www.w3.org/1999/xlink" x="0px" y="0px"
	 viewBox="0 0 49 46" style="enable-background:new 0 0 49 46;" xml:space="preserve">
<style type="text/css">
	.st0{fill:#2F2F2F;}
</style>
<path id="Shape" class="st0" d="M40,10c0-1.1-0.9-2-2-2H12c-1.1,0-2,0.9-2,2V36c0,1.1,0.9,2,2,2H38c1.1,0,2-0.9,2-2V10z M17.2,24.3
	c-0.7,0-1.3-0.6-1.3-1.3s0.6-1.3,1.3-1.3h6.2c0.2,0,0.3-0.1,0.3-0.3v-6.2c0-0.7,0.6-1.3,1.3-1.3s1.3,0.6,1.3,1.3v6.2
	c0,0.2,0.1,0.3,0.3,0.3h6.2c0.7,0,1.3,0.6,1.3,1.3s-0.6,1.3-1.3,1.3h-6.2c-0.2,0-0.3,0.1-0.3,0.3v6.2c0,0.7-0.6,1.3-1.3,1.3
	s-1.3-0.6-1.3-1.3v-6.2c0-0.2-0.1-0.3-0.3-0.3H17.2z"/>
</svg>
