<?xml version="1.0" encoding="utf-8"?>
<!-- Generator: Adobe Illustrator 21.1.0, SVG Export Plug-In . SVG Version: 6.00 Build 0)  -->
<svg version="1.1" id="Layer_1" xmlns="http://www.w3.org/2000/svg" xmlns:xlink="http://www.w3.org/1999/xlink" x="0px" y="0px"
	 viewBox="0 0 49 46" style="enable-background:new 0 0 49 46;" xml:space="preserve">
<style type="text/css">
	.st0{fill:none;stroke:#000000;stroke-width:1.5;stroke-linecap:round;stroke-linejoin:round;}
</style>
<title>icn/economy</title>
<desc>Created with Sketch.</desc>
<path id="Path" class="st0" d="M13,37.2h19.8c1.5,0,2.7-1.1,3-2.5l5.3-31c0.2-1.4,1.5-2.5,3-2.5l2,0"/>
<path id="Path_1_" class="st0" d="M16.8,41.8c0.4,0,0.8,0.3,0.8,0.8s-0.3,0.8-0.8,0.8S16,42.9,16,42.5S16.3,41.8,16.8,41.8"/>
<path id="Path_2_" class="st0" d="M31.8,41.8c0.4,0,0.8,0.3,0.8,0.8s-0.3,0.8-0.8,0.8c-0.4,0-0.8-0.3-0.8-0.8S31.3,41.8,31.8,41.8"
	/>
<path id="Path_3_" class="st0" d="M36.9,28.2H12.8c-2.8,0-5.2-1.9-5.8-4.5L4,12.1c-0.1-0.4,0-0.9,0.3-1.3c0.3-0.4,0.7-0.6,1.2-0.6
	H40"/>
<path id="Path_4_" class="st0" d="M13,16.2v4.5"/>
<path id="Path_5_" class="st0" d="M22,16.2v4.5"/>
<path id="Path_6_" class="st0" d="M31,16.2v4.5"/>
</svg>
