<?xml version="1.0" encoding="utf-8"?>
<!-- Generator: Adobe Illustrator 21.1.0, SVG Export Plug-In . SVG Version: 6.00 Build 0)  -->
<svg version="1.1" id="Layer_1" xmlns="http://www.w3.org/2000/svg" xmlns:xlink="http://www.w3.org/1999/xlink" x="0px" y="0px"
	 viewBox="0 0 49 46" style="enable-background:new 0 0 49 46;" xml:space="preserve">
<style type="text/css">
	.st0{fill:none;stroke:#000000;stroke-width:1.5;stroke-linecap:round;stroke-linejoin:round;}
</style>
<title>icn/agricultures</title>
<desc>Created with Sketch.</desc>
<circle id="Oval" class="st0" cx="31.2" cy="36.2" r="6.2"/>
<path id="Path" class="st0" d="M31.2,36.9c0.4,0,0.7-0.3,0.7-0.7"/>
<path id="Path_1_" class="st0" d="M30.5,36.2c0,0.4,0.3,0.7,0.7,0.7"/>
<path id="Path_2_" class="st0" d="M31.2,35.5c-0.4,0-0.7,0.3-0.7,0.7"/>
<path id="Path_3_" class="st0" d="M31.9,36.2c0-0.4-0.3-0.7-0.7-0.7"/>
<circle id="Oval_1_" class="st0" cx="10.6" cy="36.2" r="6.2"/>
<path id="Path_4_" class="st0" d="M10.6,36.9c0.4,0,0.7-0.3,0.7-0.7"/>
<path id="Path_5_" class="st0" d="M9.9,36.2c0,0.4,0.3,0.7,0.7,0.7"/>
<path id="Path_6_" class="st0" d="M10.6,35.5c-0.4,0-0.7,0.3-0.7,0.7"/>
<path id="Path_7_" class="st0" d="M11.2,36.2c0-0.4-0.3-0.7-0.7-0.7"/>
<path id="Path_8_" class="st0" d="M25,36.9h-8.3"/>
<path id="Path_9_" class="st0" d="M37.3,36.9h5.5c1.5,0,2.8-1.2,2.8-2.8v-11c0-1.5-1.2-2.8-2.8-2.8h-9.6c-0.9,0-1.7,0.4-2.2,1.1
	l-3.3,4.4V30"/>
<polyline id="Path_10_" class="st0" points="7.1,24.5 7.1,9.4 22.2,9.4 18.1,24.5 "/>
<polyline id="Path_11_" class="st0" points="4.4,24.5 18.1,24.5 20.9,30 27.8,30 "/>
<path id="Path_12_" class="st0" d="M6.2,3.9h15.6c1,0,1.8,0.8,1.8,1.8v3.7H4.4V5.8C4.4,4.7,5.2,3.9,6.2,3.9z"/>
</svg>
