<?xml version="1.0" encoding="utf-8"?>
<!-- Generator: Adobe Illustrator 21.1.0, SVG Export Plug-In . SVG Version: 6.00 Build 0)  -->
<svg version="1.1" id="Layer_1" xmlns="http://www.w3.org/2000/svg" xmlns:xlink="http://www.w3.org/1999/xlink" x="0px" y="0px"
	 viewBox="0 0 49 46" style="enable-background:new 0 0 49 46;" xml:space="preserve">
<title>icn/states</title>
<desc>Created with Sketch.</desc>
<path id="Path" d="M46.1,28.5h-3.7c-0.5,0-0.9-0.4-0.9-0.9v-0.9c0-0.5,0.4-0.9,0.9-0.9h2.8c0.3,0,0.6-0.2,0.8-0.5
	c0.2-0.3,0.2-0.6,0-0.9l-2.3-4c-0.1-0.2-0.1-0.5,0-0.7s0.3-0.3,0.6-0.3c0.3,0,0.6-0.2,0.8-0.5s0.2-0.6,0-0.9l-4.6-7.3
	c-0.2-0.3-0.5-0.4-0.8-0.4c-0.3,0-0.6,0.2-0.8,0.4l-4.6,7.3c-0.2,0.3-0.2,0.6,0,0.9c0.2,0.3,0.5,0.5,0.8,0.5c0.2,0,0.5,0.1,0.6,0.3
	s0.1,0.5,0,0.7l-2.3,4c-0.2,0.3-0.2,0.6,0,0.9s0.5,0.5,0.8,0.5h2.8c0.5,0,0.9,0.4,0.9,0.9v1.5c0,0.4-0.3,0.8-0.7,0.9
	c-3.6,1-6.9,2.8-9.8,5.2c-0.1,0.1-0.2,0.3-0.2,0.4s0.1,0.3,0.3,0.4c4,1.3,7.6,3.6,10.4,6.7c0.5,0.7,0.8,1.5,0.8,2.3
	c0,0.5,0.4,0.9,0.9,0.9h6.4c0.5,0,0.9-0.4,0.9-0.9V29.4C47,28.9,46.6,28.5,46.1,28.5z"/>
<path id="Path_1_" d="M18.5,35.9c-0.5,0-0.8-0.4-0.8-0.9v-2.9c0-0.5,0.4-0.9,0.9-0.9h5.6c0.7,0,1.3-0.4,1.6-1
	c0.3-0.6,0.3-1.3-0.1-1.9L21.9,23c-0.1-0.2-0.1-0.4,0-0.6s0.3-0.3,0.5-0.3c0.7,0,1.3-0.4,1.6-1c0.3-0.6,0.3-1.3-0.1-1.9l-4.1-6.5
	c-0.2-0.4-0.2-0.9,0.2-1.2c0.7-0.6,0.8-1.6,0.4-2.3l-4.7-7.8C15.5,1.2,15.2,1,14.9,1c-0.3,0-0.6,0.2-0.8,0.4L9.5,9.2
	C9,10,9.2,11,9.8,11.5c0.3,0.3,0.4,0.8,0.2,1.2l-4.2,6.5c-0.4,0.6-0.4,1.3-0.1,1.9s0.9,1,1.6,0.9c0.2,0,0.4,0.1,0.5,0.3
	c0.1,0.2,0.1,0.4,0,0.6l-3.7,5.3c-0.4,0.6-0.4,1.3-0.1,1.9c0.3,0.6,0.9,1,1.6,1h5.6c0.5,0,0.9,0.4,0.9,0.9v3.2
	c0,0.4-0.3,0.8-0.7,0.9c-2.9,0.6-5.6,1.7-8,3.4C3.2,39.8,3,40.1,3,40.4v3.7C3,44.6,3.4,45,3.9,45h31.2c0.4,0,0.7-0.2,0.8-0.5
	c0.2-0.3,0.1-0.7-0.1-1C31.5,38.4,23.8,36.4,18.5,35.9z"/>
</svg>
