<?xml version="1.0" encoding="utf-8"?>
<!-- Generator: Adobe Illustrator 21.1.0, SVG Export Plug-In . SVG Version: 6.00 Build 0)  -->
<svg version="1.1" id="Layer_1" xmlns="http://www.w3.org/2000/svg" xmlns:xlink="http://www.w3.org/1999/xlink" x="0px" y="0px"
	 viewBox="0 0 49 46" style="enable-background:new 0 0 49 46;" xml:space="preserve">
<style type="text/css">
	.st0{fill:none;stroke:#000000;stroke-width:1.5;stroke-linecap:round;stroke-linejoin:round;}
</style>
<title>icn/environment</title>
<desc>Created with Sketch.</desc>
<path id="Path" class="st0" d="M38,17L30.4,3.9c-1.1-1.8-3-2.9-5.2-2.9s-4.1,1.1-5.2,2.9L18,7.5"/>
<path id="Path_1_" class="st0" d="M25,39h15c2.1,0,4.1-1.2,5.2-3.1c1.1-1.9,1.1-4.3,0-6.2L42.6,25"/>
<path id="Path_2_" class="st0" d="M12.3,16L4.8,29.8c-1.1,1.9-1.1,4.2,0,6.1S7.8,39,10,39h6"/>
<polyline id="Path_3_" class="st0" points="31,33 25,39 31,45 "/>
<polyline id="Path_4_" class="st0" points="40,9 37.9,17 30,14.9 "/>
<polyline id="Path_5_" class="st0" points="5,18.1 12.9,16 15,24 "/>
</svg>
