<?xml version="1.0" encoding="utf-8"?>
<!-- Generator: Adobe Illustrator 21.1.0, SVG Export Plug-In . SVG Version: 6.00 Build 0)  -->
<svg version="1.1" id="Layer_1" xmlns="http://www.w3.org/2000/svg" xmlns:xlink="http://www.w3.org/1999/xlink" x="0px" y="0px"
	 viewBox="0 0 49 46" style="enable-background:new 0 0 49 46;" xml:space="preserve">
<style type="text/css">
	.st0{fill:none;stroke:#000000;stroke-width:1.5;stroke-linecap:round;stroke-linejoin:round;}
</style>
<path id="Path" class="st0" d="M23.2,20.2c-0.4-0.6-1.1-1-1.8-0.9c-0.7-0.1-1.4,0.3-1.8,0.9"/>
<path id="Path_1_" class="st0" d="M30.5,20.2c-0.4-0.6-1.1-1-1.8-0.9c-0.7-0.1-1.4,0.3-1.8,0.9"/>
<path id="Path_2_" class="st0" d="M26.8,23.9c-0.7,0-1.3,0.2-1.8,0.6c-0.5-0.4-1.2-0.6-1.8-0.6c-4.4,0-4.6,5-9.4,3.9
	c-0.2,0-0.3,0-0.5,0.1c-0.1,0.1-0.2,0.3-0.1,0.5c0.8,2.9,5.8,2.9,7.2,2.9c1.8,0,3.5-0.8,4.6-2.3c1.1,1.4,2.8,2.3,4.6,2.3
	c1.4,0,6.5,0,7.2-2.9c0-0.2,0-0.3-0.1-0.5c-0.1-0.1-0.3-0.2-0.5-0.1C31.4,28.9,31.2,23.9,26.8,23.9z"/>
<path id="Path_3_" class="st0" d="M14,17.5c-1.6,0.8-1.1,4.4,0.9,5.3c0.6,0.3,0.9,0.8,1,1.4c0.2,1.1,0.7,2.2,1.3,3.2"/>
<path id="Path_4_" class="st0" d="M32.7,27.3c0.7-1,1.1-2,1.3-3.2c0.1-0.6,0.5-1.1,1-1.4c2-0.9,2.5-4.5,0.9-5.3"/>
<path id="Path_5_" class="st0" d="M17.3,34.1c-0.4-0.1-0.7,0-1.1,0.1l-7.5,3c-2.9,1.1-4.8,3.8-4.8,6.9"/>
<path id="Path_6_" class="st0" d="M32.7,34.1c0.4-0.1,0.7,0,1.1,0.1l7.5,3c2.9,1.1,4.8,3.8,4.8,6.9"/>
<path id="Path_7_" class="st0" d="M7.6,12.9c11.5,2.4,23.4,2.4,34.8,0"/>
<path id="Path_8_" class="st0" d="M36.5,13.9c-1-2-1.6-4.3-1.7-6.6c0-1.1,0.1-2.3,0.3-3.4C35.1,3.5,35,3,34.7,2.5
	c-0.3-0.4-0.9-0.7-1.4-0.6H16.8c-0.5,0-1.1,0.2-1.4,0.6C15,3,14.8,3.5,14.9,4c0.2,1.1,0.3,2.2,0.3,3.4c-0.1,2.3-0.7,4.5-1.7,6.6"/>
<path id="Path_9_" class="st0" d="M15.2,8.7c6.5,0.8,13.1,0.8,19.7,0"/>
<path id="Path_10_" class="st0" d="M27.3,44.1l-1.4-5.1c-0.1-0.4-0.5-0.7-0.9-0.7s-0.8,0.3-0.9,0.7l-1.4,5.1"/>
<path id="Path_11_" class="st0" d="M34.7,34.6L31.2,44"/>
<path id="Path_12_" class="st0" d="M11.9,44.1l-2-1.6c-0.3-0.3-0.4-0.7-0.3-1.1l2.7-5.7"/>
<path id="Path_13_" class="st0" d="M38.1,44.1l2-1.6c0.3-0.3,0.4-0.7,0.3-1.1l-2.7-5.7"/>
<path id="Path_14_" class="st0" d="M15.3,34.6l3.6,9.5"/>
</svg>
