<?xml version="1.0" encoding="utf-8"?>
<!-- Generator: Adobe Illustrator 21.1.0, SVG Export Plug-In . SVG Version: 6.00 Build 0)  -->
<svg version="1.1" id="Layer_1" xmlns="http://www.w3.org/2000/svg" xmlns:xlink="http://www.w3.org/1999/xlink" x="0px" y="0px"
	 viewBox="0 0 49 46" style="enable-background:new 0 0 49 46;" xml:space="preserve">
<style type="text/css">
	.st0{fill:none;}
	.st1{fill:none;stroke:#000000;stroke-width:1.5;stroke-linecap:round;stroke-linejoin:round;}
</style>
<title>icn/attention</title>
<desc>Created with Sketch.</desc>
<path id="Path" class="st0" d="M4,2"/>
<path id="Path_1_" class="st1" d="M34.6,38.1c-0.4,0-0.7,0.3-0.7,0.7s0.3,0.7,0.7,0.7s0.7-0.3,0.7-0.7S35,38.1,34.6,38.1"/>
<path id="Path_2_" class="st1" d="M34.6,34v-5.5"/>
<path id="Path_3_" class="st1" d="M45.3,38.9c0.5,1,0.5,2.2-0.1,3.2c-0.6,1-1.6,1.5-2.8,1.5H26.9c-1.1,0-2.2-0.6-2.8-1.5
	c-0.6-1-0.6-2.2-0.1-3.2l7.7-15.5c0.6-1.1,1.7-1.8,2.9-1.8c1.2,0,2.4,0.7,2.9,1.8L45.3,38.9z"/>
<circle id="Oval" class="st1" cx="14" cy="7.9" r="5.5"/>
<path id="Path_4_" class="st1" d="M23.6,27.1v-1.4c0-5.3-4.3-9.6-9.6-9.6s-9.6,4.3-9.6,9.6v4.1h4.1l1.4,13.8h8.2l0.7-7.1"/>
<circle id="Oval_1_" class="st1" cx="33.2" cy="7.2" r="4.8"/>
<path id="Path_5_" class="st1" d="M40.4,17.5c-1.3-2.3-3.7-3.8-6.3-4.1c-2.6-0.3-5.3,0.8-7,2.8"/>
</svg>
