<?xml version="1.0" encoding="utf-8"?>
<!-- Generator: Adobe Illustrator 21.1.0, SVG Export Plug-In . SVG Version: 6.00 Build 0)  -->
<svg version="1.1" id="Layer_1" xmlns="http://www.w3.org/2000/svg" xmlns:xlink="http://www.w3.org/1999/xlink" x="0px" y="0px"
	 viewBox="0 0 49 46" style="enable-background:new 0 0 49 46;" xml:space="preserve">
<style type="text/css">
	.st0{fill:none;stroke:#000000;stroke-width:1.5;stroke-linecap:round;stroke-linejoin:round;}
</style>
<title>icn/cities_line</title>
<desc>Created with Sketch.</desc>
<path id="Rectangle" class="st0" d="M29.6,16.1h15.5c0.3,0,0.5,0.2,0.5,0.5v26.5c0,0.3-0.2,0.5-0.5,0.5H29.6c-0.3,0-0.5-0.2-0.5-0.5
	V16.6C29.1,16.3,29.3,16.1,29.6,16.1z"/>
<path id="Rectangle_1_" class="st0" d="M4.9,21.6h18.2c0.3,0,0.5,0.2,0.5,0.5v21c0,0.3-0.2,0.5-0.5,0.5H4.9c-0.3,0-0.5-0.2-0.5-0.5
	v-21C4.4,21.8,4.6,21.6,4.9,21.6z"/>
<path id="Path" class="st0" d="M7.1,21.6V6.5c0-0.8,0.6-1.4,1.4-1.4h11c0.8,0,1.4,0.6,1.4,1.4v15.1"/>
<path id="Path_1_" class="st0" d="M12.6,5.1V2.4"/>
<path id="Path_2_" class="st0" d="M12.6,16.1h2.8"/>
<path id="Path_3_" class="st0" d="M12.6,10.6h2.8"/>
<path id="Path_4_" class="st0" d="M9.9,27.1h8.2"/>
<path id="Path_5_" class="st0" d="M9.9,32.6h8.2"/>
<path id="Path_6_" class="st0" d="M9.9,38.1h8.2"/>
<path id="Path_7_" class="st0" d="M34.6,27.1h5.5"/>
<path id="Path_8_" class="st0" d="M34.6,21.6h5.5"/>
<path id="Path_9_" class="st0" d="M34.6,32.6h5.5"/>
<path id="Path_10_" class="st0" d="M34.6,38.1h5.5"/>
</svg>
