<?xml version="1.0" encoding="utf-8"?>
<!-- Generator: Adobe Illustrator 21.1.0, SVG Export Plug-In . SVG Version: 6.00 Build 0)  -->
<svg version="1.1" id="Layer_1" xmlns="http://www.w3.org/2000/svg" xmlns:xlink="http://www.w3.org/1999/xlink" x="0px" y="0px"
	 viewBox="0 0 49 46" style="enable-background:new 0 0 49 46;" xml:space="preserve">
<style type="text/css">
	.st0{fill:none;stroke:#000000;stroke-width:1.5;stroke-linecap:round;stroke-linejoin:round;}
</style>
<title>icn/banks</title>
<desc>Created with Sketch.</desc>
<rect id="Rectangle" x="10.4" y="16" class="st0" width="5.5" height="16.5"/>
<rect id="Rectangle_1_" x="21.4" y="16" class="st0" width="5.5" height="16.5"/>
<rect id="Rectangle_2_" x="32.4" y="16" class="st0" width="5.5" height="16.5"/>
<path id="Path" class="st0" d="M40.7,38h-33v-4.1c0-0.8,0.6-1.4,1.4-1.4h30.3c0.8,0,1.4,0.6,1.4,1.4V38z"/>
<path id="Path_1_" class="st0" d="M4.9,43.5h38.5"/>
<path id="Path_2_" class="st0" d="M4.9,38h38.5"/>
<path id="Path_3_" class="st0" d="M40.7,10.5v4.1c0,0.8-0.6,1.4-1.4,1.4H9c-0.8,0-1.4-0.6-1.4-1.4v-4.1l15.9-7.9
	c0.4-0.2,0.8-0.2,1.2,0L40.7,10.5z"/>
<path id="Path_4_" class="st0" d="M7.7,10.5h33"/>
</svg>
