<?xml version="1.0" encoding="utf-8"?>
<!-- Generator: Adobe Illustrator 21.1.0, SVG Export Plug-In . SVG Version: 6.00 Build 0)  -->
<svg version="1.1" id="Layer_1" xmlns="http://www.w3.org/2000/svg" xmlns:xlink="http://www.w3.org/1999/xlink" x="0px" y="0px"
	 viewBox="0 0 49 46" style="enable-background:new 0 0 49 46;" xml:space="preserve">
<style type="text/css">
	.st0{fill:#2F2F2F;}
</style>
<title>icn/close</title>
<desc>Created with Sketch.</desc>
<path id="Shape" class="st0" d="M24.5,6C14.8,6,7,13.8,7,23.5S14.8,41,24.5,41S42,33.2,42,23.5S34.2,6,24.5,6z M28.9,29.8l-4.4-4.4
	l-4.4,4.4c-0.5,0.5-1.4,0.5-1.9,0c-0.3-0.3-0.4-0.6-0.4-1s0.1-0.7,0.4-1l4.4-4.4l-4.4-4.4c-0.3-0.3-0.4-0.6-0.4-1
	c0-0.3,0.1-0.7,0.4-1c0.5-0.5,1.4-0.5,1.9,0l4.4,4.4l4.4-4.4c0.5-0.5,1.4-0.5,1.9,0s0.5,1.4,0,1.9l-4.4,4.4l4.4,4.4
	c0.5,0.5,0.5,1.4,0,1.9C30.3,30.4,29.5,30.4,28.9,29.8z"/>
</svg>
