<?xml version="1.0" encoding="utf-8"?>
<!-- Generator: Adobe Illustrator 21.1.0, SVG Export Plug-In . SVG Version: 6.00 Build 0)  -->
<svg version="1.1" id="Layer_1" xmlns="http://www.w3.org/2000/svg" xmlns:xlink="http://www.w3.org/1999/xlink" x="0px" y="0px"
	 viewBox="0 0 49 46" style="enable-background:new 0 0 49 46;" xml:space="preserve">
<title>icn/cities</title>
<desc>Created with Sketch.</desc>
<path id="Shape" d="M23.2,18.4H4.8c-1,0-1.8,0.8-1.8,1.8v22.9c0,1,0.8,1.8,1.8,1.8h5.5c0.5,0,0.9-0.4,0.9-0.9v-4.6
	c0-1,0.8-1.8,1.8-1.8h1.8c1,0,1.8,0.8,1.8,1.8v4.6c0,0.5,0.4,0.9,0.9,0.9h5.5c1,0,1.8-0.8,1.8-1.8V20.2C25,19.2,24.2,18.4,23.2,18.4
	z M20,32.6H8c-0.8,0-1.4-0.6-1.4-1.4s0.6-1.4,1.4-1.4H20c0.8,0,1.4,0.6,1.4,1.4S20.7,32.6,20,32.6z M20,26.2H8
	c-0.8,0-1.4-0.6-1.4-1.4s0.6-1.4,1.4-1.4H20c0.8,0,1.4,0.6,1.4,1.4S20.7,26.2,20,26.2z"/>
<path id="Shape_1_" d="M7.6,15.7h12.8c0.5,0,0.9-0.4,0.9-0.9V7.4c0-1-0.8-1.8-1.8-1.8h-4.1c-0.5,0-0.9-0.4-0.9-0.9V2.8
	c0-1-0.8-1.8-1.8-1.8s-1.8,0.8-1.8,1.8v1.8c0,0.5-0.4,0.9-0.9,0.9H8.5c-1,0-1.8,0.8-1.8,1.8v7.3C6.7,15.3,7.1,15.7,7.6,15.7z
	 M11.7,9.7h4.6c0.8,0,1.4,0.6,1.4,1.4c0,0.8-0.6,1.4-1.4,1.4h-4.6c-0.8,0-1.4-0.6-1.4-1.4C10.3,10.3,10.9,9.7,11.7,9.7z"/>
<path id="Shape_2_" d="M45.2,12H30.5c-1,0-1.8,0.8-1.8,1.8v30.2c0,0.5,0.4,0.9,0.9,0.9h4.6c0.5,0,0.9-0.4,0.9-0.9v-4.6
	c0-1,0.8-1.8,1.8-1.8h1.8c1,0,1.8,0.8,1.8,1.8v4.6c0,0.5,0.4,0.9,0.9,0.9h4.6c0.5,0,0.9-0.4,0.9-0.9V13.8C47,12.8,46.2,12,45.2,12z
	 M42,33.5h-8.2c-0.8,0-1.4-0.6-1.4-1.4c0-0.8,0.6-1.4,1.4-1.4H42c0.8,0,1.4,0.6,1.4,1.4C43.3,32.9,42.7,33.5,42,33.5z M42,26.2h-8.2
	c-0.8,0-1.4-0.6-1.4-1.4s0.6-1.4,1.4-1.4H42c0.8,0,1.4,0.6,1.4,1.4S42.7,26.2,42,26.2z M42,18.9h-8.2c-0.8,0-1.4-0.6-1.4-1.4
	s0.6-1.4,1.4-1.4H42c0.8,0,1.4,0.6,1.4,1.4S42.7,18.9,42,18.9z"/>
</svg>
